<svg width="22" height="22" viewBox="0 0 22 22" fill="none" xmlns="http://www.w3.org/2000/svg">
<path d="M18.35 5.225C18.35 6.09485 17.6448 6.8 16.775 6.8C15.9052 6.8 15.2 6.09485 15.2 5.225C15.2 4.35515 15.9052 3.65 16.775 3.65C17.6448 3.65 18.35 4.35515 18.35 5.225Z" fill="white"/>
<path fill-rule="evenodd" clip-rule="evenodd" d="M11 16.25C13.8995 16.25 16.25 13.8995 16.25 11C16.25 8.1005 13.8995 5.75 11 5.75C8.1005 5.75 5.75 8.1005 5.75 11C5.75 13.8995 8.1005 16.25 11 16.25ZM11 14.15C12.7397 14.15 14.15 12.7397 14.15 11C14.15 9.2603 12.7397 7.85 11 7.85C9.2603 7.85 7.85 9.2603 7.85 11C7.85 12.7397 9.2603 14.15 11 14.15Z" fill="white"/>
<path fill-rule="evenodd" clip-rule="evenodd" d="M0.5 10.58C0.5 7.05167 0.5 5.2875 1.18666 3.93986C1.79066 2.75444 2.75444 1.79066 3.93986 1.18666C5.2875 0.5 7.05167 0.5 10.58 0.5H11.42C14.9483 0.5 16.7125 0.5 18.0601 1.18666C19.2456 1.79066 20.2093 2.75444 20.8133 3.93986C21.5 5.2875 21.5 7.05167 21.5 10.58V11.42C21.5 14.9483 21.5 16.7125 20.8133 18.0601C20.2093 19.2456 19.2456 20.2093 18.0601 20.8133C16.7125 21.5 14.9483 21.5 11.42 21.5H10.58C7.05167 21.5 5.2875 21.5 3.93986 20.8133C2.75444 20.2093 1.79066 19.2456 1.18666 18.0601C0.5 16.7125 0.5 14.9483 0.5 11.42V10.58ZM10.58 2.6H11.42C13.2188 2.6 14.4416 2.60163 15.3868 2.67886C16.3075 2.75408 16.7783 2.89042 17.1068 3.05777C17.897 3.46044 18.5396 4.10296 18.9422 4.89324C19.1096 5.22168 19.2459 5.69251 19.3211 6.61318C19.3984 7.55837 19.4 8.78118 19.4 10.58V11.42C19.4 13.2188 19.3984 14.4416 19.3211 15.3868C19.2459 16.3075 19.1096 16.7783 18.9422 17.1068C18.5396 17.897 17.897 18.5396 17.1068 18.9422C16.7783 19.1096 16.3075 19.2459 15.3868 19.3211C14.4416 19.3984 13.2188 19.4 11.42 19.4H10.58C8.78118 19.4 7.55837 19.3984 6.61318 19.3211C5.69251 19.2459 5.22168 19.1096 4.89324 18.9422C4.10296 18.5396 3.46044 17.897 3.05777 17.1068C2.89042 16.7783 2.75408 16.3075 2.67886 15.3868C2.60163 14.4416 2.6 13.2188 2.6 11.42V10.58C2.6 8.78118 2.60163 7.55837 2.67886 6.61318C2.75408 5.69251 2.89042 5.22168 3.05777 4.89324C3.46044 4.10296 4.10296 3.46044 4.89324 3.05777C5.22168 2.89042 5.69251 2.75408 6.61318 2.67886C7.55837 2.60163 8.78118 2.6 10.58 2.6Z" fill="white"/>
</svg>
