<svg width="25" height="21" viewBox="0 0 25 21" fill="none" xmlns="http://www.w3.org/2000/svg">
<path d="M19.7869 5.48231C20.3742 5.13612 21.3451 4.20208 21.6569 3.0824C21.0382 3.4813 19.7727 3.94258 18.9318 4.13963C18.1358 3.28457 17.0019 2.75 15.7435 2.75C13.3351 2.75 11.3826 4.70819 11.3826 7.12373C11.3826 7.46032 11.4205 7.78802 11.4923 8.10278C7.6859 8.01393 4.60912 6.4165 2.55613 3.57226C2.05027 4.23707 1.02109 7.31618 3.88185 9.36308C3.49809 9.39807 2.52125 9.25811 1.94561 8.85573C1.84095 9.67799 2.31192 12.3722 5.382 13.142C4.77148 13.3869 3.68997 13.2819 3.4632 13.1945C3.6202 14.0692 4.82381 16.1161 7.49268 16.2386C5.71855 17.9308 2.86624 18.1813 1.25 18.0767C3.15363 19.2943 5.41531 20 7.84156 20C14.9574 20 20.2605 13.9535 20.1033 7.02232C20.948 6.4368 21.9773 5.39094 22.25 4.76192C21.6986 5.13603 20.3028 5.40428 19.7869 5.48231ZM19.7869 5.48231C19.7821 5.47048 19.7918 5.49408 19.7869 5.48231Z" stroke="white" stroke-width="2"/>
</svg>
